HIERARCHY
ROOT Hips
{
	OFFSET 0.00000 0.00000 0.00000
	CHANNELS 6 Xposition Yposition Zposition Zrotation Yrotation Xrotation 
	JOINT LHipJoint
	{
		OFFSET 0 0 0
		CHANNELS 3 Zrotation Yrotation Xrotation
		JOINT LeftUpLeg
		{
			OFFSET 1.62964 -1.40469 0.78906
			CHANNELS 3 Zrotation Yrotation Xrotation
			JOINT LeftLeg
			{
				OFFSET 2.29640 -6.30932 0.00000
				CHANNELS 3 Zrotation Yrotation Xrotation
				JOINT LeftFoot
				{
					OFFSET 2.29451 -6.30412 0.00000
					CHANNELS 3 Zrotation Yrotation Xrotation
					JOINT LeftToeBase
					{
						OFFSET 0.03611 -0.09921 1.56387
						CHANNELS 3 Zrotation Yrotation Xrotation
						End Site
						{
							OFFSET 0.00000 -0.00000 0.80291
						}
					}
				}
			}
		}
	}
	JOINT RHipJoint
	{
		OFFSET 0 0 0
		CHANNELS 3 Zrotation Yrotation Xrotation
		JOINT RightUpLeg
		{
			OFFSET -1.73712 -1.40469 0.78906
			CHANNELS 3 Zrotation Yrotation Xrotation
			JOINT RightLeg
			{
				OFFSET -2.28137 -6.26801 0.00000
				CHANNELS 3 Zrotation Yrotation Xrotation
				JOINT RightFoot
				{
					OFFSET -2.28681 -6.28298 0.00000
					CHANNELS 3 Zrotation Yrotation Xrotation
					JOINT RightToeBase
					{
						OFFSET -0.15927 -0.43759 1.61103
						CHANNELS 3 Zrotation Yrotation Xrotation
						End Site
						{
							OFFSET -0.00000 -0.00000 0.84630
						}
					}
				}
			}
		}
	}
	JOINT LowerBack
	{
		OFFSET 0 0 0
		CHANNELS 3 Zrotation Yrotation Xrotation
		JOINT Spine
		{
			OFFSET -0.04227 2.04338 -0.00225
			CHANNELS 3 Zrotation Yrotation Xrotation
			JOINT Spine1
			{
				OFFSET -0.02148 2.04482 -0.04273
				CHANNELS 3 Zrotation Yrotation Xrotation
				JOINT Neck
				{
					OFFSET 0 0 0
					CHANNELS 3 Zrotation Yrotation Xrotation
					JOINT Neck1
					{
						OFFSET 0.09180 1.44629 0.19359
						CHANNELS 3 Zrotation Yrotation Xrotation
						JOINT Head
						{
							OFFSET 0.00887 1.40645 0.14750
							CHANNELS 3 Zrotation Yrotation Xrotation
							End Site
							{
								OFFSET -0.00669 1.50671 0.03707
							}
						}
					}
				}
				JOINT LeftShoulder
				{
					OFFSET 0 0 0
					CHANNELS 3 Zrotation Yrotation Xrotation
					JOINT LeftArm
					{
						OFFSET 2.17674 1.86763 -0.06520
						CHANNELS 3 Zrotation Yrotation Xrotation
						JOINT LeftForeArm
						{
							OFFSET 4.65776 -0.00000 0.00000
							CHANNELS 3 Zrotation Yrotation Xrotation
							JOINT LeftHand
							{
								OFFSET 3.55539 -0.00000 0.00000
								CHANNELS 3 Zrotation Yrotation Xrotation
								JOINT LeftFingerBase
								{
									OFFSET 0 0 0
									CHANNELS 3 Zrotation Yrotation Xrotation
									JOINT LeftHandIndex1
									{
										OFFSET 0.70726 -0.00000 0.00000
										CHANNELS 3 Zrotation Yrotation Xrotation
										End Site
										{
											OFFSET 0.57022 -0.00000 0.00000
										}
									}
								}
								JOINT LThumb
								{
									OFFSET 0 0 0
									CHANNELS 3 Zrotation Yrotation Xrotation
									End Site
									{
										OFFSET 0.57892 -0.00000 0.57892
									}
								}
							}
						}
					}
				}
				JOINT RightShoulder
				{
					OFFSET 0 0 0
					CHANNELS 3 Zrotation Yrotation Xrotation
					JOINT RightArm
					{
						OFFSET -2.80694 1.55459 -0.32496
						CHANNELS 3 Zrotation Yrotation Xrotation
						JOINT RightForeArm
						{
							OFFSET -4.71925 -0.00000 -0.00000
							CHANNELS 3 Zrotation Yrotation Xrotation
							JOINT RightHand
							{
								OFFSET -3.56990 -0.00000 0.00000
								CHANNELS 3 Zrotation Yrotation Xrotation
								JOINT RightFingerBase
								{
									OFFSET 0 0 0
									CHANNELS 3 Zrotation Yrotation Xrotation
									JOINT RightHandIndex1
									{
										OFFSET -0.50776 -0.00000 0.00000
										CHANNELS 3 Zrotation Yrotation Xrotation
										End Site
										{
											OFFSET -0.40937 -0.00000 0.00000
										}
									}
								}
								JOINT RThumb
								{
									OFFSET 0 0 0
									CHANNELS 3 Zrotation Yrotation Xrotation
									End Site
									{
										OFFSET -0.41562 -0.00000 0.41562
									}
								}
							}
						}
					}
				}
			}
		}
	}
}
MOTION
Frames: 7
Frame Time: .0083333
7.0724 16.2914 31.5436 0 0 0 0 0 0 -21 0 0 0 0 0 0 0 0 0 0 0 0 0 0 21 0 0 0 0 0 0 0 0 0 0 0 0 0 0 0 0 0 0 0 0 0 0 -16 0 0 21 0 0 11 0 0 0 -8 0 0 0 0 0 0 0 0 0 0 0 0 0 0 0 0 0 0 0 0 8 0 0 0 0 0 0 0 0 0 0 0 0 0 0 0 0 0
7.0724 16.2914 31.5436 177.7970 -1.3241 -154.8160 0.0000 0.0000 0.0000 -19.6748 -17.1384 -18.9868 0.2525 3.2334 8.9293 0.1691 -4.1786 -7.4355 2.2643 -9.3961 -27.0425 0.0000 0.0000 0.0000 19.5219 12.0237 -18.7472 -0.0797 -1.8207 5.0104 -1.1024 -0.5335 -20.0471 -2.1662 9.2039 -26.4353 -7.3809 -1.2102 -28.6370 -0.8493 0.3042 -1.1465 3.1480 -0.5645 13.8126 -1.5786 -3.4284 -5.1346 6.5745 -5.2545 7.5831 2.2061 -2.4830 3.6408 0.0000 0.0000 0.0000 -85.8614 1.3125 10.7992 9.2679 -15.5863 -1.2711 -0.0000 -0.0000 8.0371 21.8040 -12.9151 -5.1095 -7.1250 0.0000 -0.0000 -3.7934 16.1268 2.5962 0.0000 0.0000 0.0000 92.9668 -6.6637 6.9404 -19.5722 30.1235 -5.3150 0.0000 -0.0000 -3.1773 -8.4830 -51.9569 6.6993 7.1250 -0.0000 -0.0000 64.8549 -74.0585 -49.1062
7.0736 16.2922 31.5396 177.7940 -1.3615 -154.8940 0.0000 0.0000 0.0000 -19.7276 -16.9290 -18.9498 0.2524 3.2329 8.9278 0.1638 -4.2764 -7.3445 2.4775 -9.7969 -28.3214 0.0000 0.0000 0.0000 19.5511 11.9526 -18.6487 -0.0797 -1.8210 5.0112 -1.1122 -0.4262 -20.0964 -2.0913 9.0538 -25.9638 -7.4272 -1.0644 -28.5599 -0.9967 0.5366 -1.0816 3.1027 -0.4575 13.8275 -1.1535 -3.6143 -5.2965 6.4103 -5.5164 7.4832 2.0567 -2.6040 3.6264 0.0000 -0.0000 0.0000 -85.5134 1.0587 10.8841 9.1816 -15.4493 -1.2480 -0.0000 -0.0000 8.1419 21.6303 -13.2712 -5.2013 -7.1250 0.0000 -0.0000 -3.9286 15.7652 2.7199 0.0000 -0.0000 0.0000 93.3303 -6.6035 6.2315 -19.3662 29.8712 -5.2120 0.0000 -0.0000 -3.0201 -8.9167 -51.6460 7.0142 7.1250 -0.0000 -0.0000 63.5790 -74.1058 -48.0244
7.0743 16.2961 31.5309 177.8240 -1.3631 -155.1390 0.0000 0.0000 0.0000 -19.7900 -16.7020 -18.6502 0.2478 3.2031 8.8446 0.1627 -4.2926 -7.3270 2.6225 -10.0574 -29.1627 0.0000 0.0000 0.0000 19.6564 11.6610 -18.3753 -0.0770 -1.7896 4.9247 -1.1192 -0.1600 -20.0638 -2.0182 8.9040 -25.4953 -7.4335 -1.1669 -28.3824 -0.8464 0.3826 -1.0615 3.2141 -0.5240 13.7848 -1.5721 -3.4905 -4.9337 6.6553 -5.3219 7.2738 2.2302 -2.5211 3.5004 -0.0000 -0.0000 0.0000 -85.7763 1.2023 10.4075 9.1950 -15.4707 -1.2516 -0.0000 -0.0000 8.2817 21.6162 -13.3055 -5.2107 -7.1250 0.0000 -0.0000 -3.9397 15.7302 2.7306 -0.0000 -0.0000 0.0000 93.0040 -6.7688 6.3220 -19.1406 29.5931 -5.1001 0.0000 -0.0000 -2.8214 -9.2816 -50.9737 7.2355 7.1250 -0.0000 -0.0000 61.1639 -73.9763 -45.7642
7.0766 16.2986 31.5272 177.8560 -1.4261 -155.3050 0.0000 0.0000 0.0000 -19.7665 -16.6829 -18.4168 0.2445 3.1817 8.7851 0.1628 -4.3402 -7.3378 2.4926 -9.8244 -28.4098 0.0000 0.0000 0.0000 19.7609 11.5085 -18.1662 -0.0747 -1.7635 4.8526 -1.1130 -0.1975 -20.0208 -2.0763 9.0232 -25.8680 -7.4356 -1.0642 -28.1991 -0.9424 0.5298 -1.0106 3.1691 -0.4500 13.7437 -1.4854 -3.4488 -5.0498 6.8822 -5.3133 7.3670 2.2910 -2.5078 3.5616 -0.0000 0.0000 0.0000 -85.5075 1.1376 10.8351 9.2057 -15.4877 -1.2545 -0.0000 -0.0000 8.1639 21.6046 -13.1680 -5.1551 -7.1250 0.0000 -0.0000 -3.9418 15.8777 2.7195 -0.0000 0.0000 0.0000 93.2923 -6.7024 5.6054 -18.8252 29.2010 -4.9453 0.0000 -0.0000 -2.2957 -9.5087 -51.0018 7.4168 7.1250 -0.0000 -0.0000 61.1099 -74.0727 -45.8208
7.0799 16.2975 31.5306 177.8310 -1.4871 -155.2310 0.0000 0.0000 0.0000 -19.7435 -16.6951 -18.5550 0.2472 3.1996 8.8351 0.1617 -4.5064 -7.3476 2.3537 -9.5668 -27.5850 0.0000 0.0000 0.0000 19.7449 11.5446 -18.2453 -0.0749 -1.7655 4.8580 -1.1090 -0.3296 -20.0325 -2.1342 9.1402 -26.2349 -7.5190 -1.2644 -28.1954 -0.7396 0.2526 -1.0992 3.3293 -0.5838 13.6668 -1.8781 -3.4509 -4.7302 6.9895 -5.2661 7.0866 2.4046 -2.4994 3.4191 0.0000 -0.0000 0.0000 -85.8564 1.3600 10.4196 9.2687 -15.5876 -1.2714 -0.0000 -0.0000 8.1273 21.4699 -13.1479 -5.1123 -7.1250 0.0000 -0.0000 -4.0337 15.9126 2.7802 0.0000 -0.0000 0.0000 92.8975 -6.8575 5.8630 -18.5567 28.8641 -4.8150 0.0000 -0.0000 -2.1028 -9.8784 -51.3886 7.7488 7.1250 -0.0000 -0.0000 62.1533 -74.3669 -47.0501
7.0808 16.2960 31.5331 177.8210 -1.4989 -155.1280 0.0000 0.0000 0.0000 -19.7241 -16.7165 -18.6747 0.2464 3.1941 8.8196 0.1605 -4.5708 -7.3367 2.3238 -9.5102 -27.4048 0.0000 0.0000 0.0000 19.7154 11.6138 -18.3678 -0.0758 -1.7766 4.8885 -1.1119 -0.3552 -20.0672 -2.1249 9.1215 -26.1761 -7.5588 -1.2883 -28.2403 -0.7023 0.2199 -1.1596 3.3774 -0.6029 13.6204 -2.0208 -3.4375 -4.9106 6.9983 -5.2630 7.4044 2.4335 -2.4941 3.5702 -0.0000 -0.0000 0.0000 -85.9072 1.4306 10.3447 9.3038 -15.6433 -1.2808 -0.0000 -0.0000 8.1348 21.4032 -13.2002 -5.1147 -7.1250 0.0000 -0.0000 -4.0819 15.8637 2.8179 -0.0000 -0.0000 0.0000 92.8508 -6.9723 5.7345 -18.3753 28.6350 -4.7277 0.0000 -0.0000 -2.2337 -10.3208 -51.4591 8.1065 7.1250 -0.0000 -0.0000 62.1259 -74.5610 -47.2346
